<svg width="18" height="19" viewBox="0 0 18 19" fill="none" xmlns="http://www.w3.org/2000/svg">
<g id="right arrow / 24 / Outline">
<path id="Vector" d="M13.44 9.2149C13.4043 9.12283 13.3508 9.03872 13.2825 8.9674L9.5325 5.21739C9.46257 5.14747 9.37955 5.092 9.28819 5.05415C9.19682 5.01631 9.09889 4.99683 9 4.99683C8.80027 4.99683 8.60873 5.07617 8.4675 5.21739C8.39757 5.28732 8.3421 5.37034 8.30426 5.46171C8.26641 5.55307 8.24693 5.651 8.24693 5.7499C8.24693 5.94962 8.32627 6.14117 8.4675 6.2824L10.9425 8.7499H5.25C5.05109 8.7499 4.86032 8.82891 4.71967 8.96957C4.57902 9.11022 4.5 9.30098 4.5 9.4999C4.5 9.69881 4.57902 9.88957 4.71967 10.0302C4.86032 10.1709 5.05109 10.2499 5.25 10.2499H10.9425L8.4675 12.7174C8.3972 12.7871 8.34141 12.8701 8.30333 12.9615C8.26526 13.0529 8.24565 13.1509 8.24565 13.2499C8.24565 13.3489 8.26526 13.4469 8.30333 13.5383C8.34141 13.6297 8.3972 13.7127 8.4675 13.7824C8.53722 13.8527 8.62017 13.9085 8.71157 13.9466C8.80296 13.9846 8.90099 14.0042 9 14.0042C9.09901 14.0042 9.19704 13.9846 9.28843 13.9466C9.37983 13.9085 9.46278 13.8527 9.5325 13.7824L13.2825 10.0324C13.3508 9.96107 13.4043 9.87696 13.44 9.7849C13.515 9.6023 13.515 9.39749 13.44 9.2149Z" fill="white"/>
</g>
</svg>
