<svg width="50" height="42" viewBox="0 0 50 42" fill="none" xmlns="http://www.w3.org/2000/svg">
<g id="lock,pad lock,safe,security,protected,padlock, / 24 / Outline" opacity="0.2">
<path id="Vector" d="M26.0001 18.1666C25.3404 18.1589 24.6943 18.3534 24.1485 18.7241C23.6028 19.0947 23.1837 19.6236 22.9477 20.2397C22.7117 20.8557 22.67 21.5292 22.8284 22.1696C22.9868 22.81 23.3375 23.3865 23.8334 23.8216V26.8332C23.8334 27.4079 24.0617 27.959 24.468 28.3653C24.8743 28.7716 25.4254 28.9999 26.0001 28.9999C26.5747 28.9999 27.1258 28.7716 27.5321 28.3653C27.9385 27.959 28.1667 27.4079 28.1667 26.8332V23.8216C28.6627 23.3865 29.0134 22.81 29.1718 22.1696C29.3301 21.5292 29.2885 20.8557 29.0525 20.2397C28.8164 19.6236 28.3974 19.0947 27.8516 18.7241C27.3059 18.3534 26.6597 18.1589 26.0001 18.1666ZM36.8334 9.49992V5.16658C36.8334 2.29341 35.692 -0.462094 33.6604 -2.49374C31.6288 -4.52538 28.8733 -5.66675 26.0001 -5.66675C23.1269 -5.66675 20.3714 -4.52538 18.3398 -2.49374C16.3081 -0.462094 15.1667 2.29341 15.1667 5.16658V9.49992C13.4428 9.49992 11.7895 10.1847 10.5706 11.4037C9.35157 12.6227 8.66675 14.276 8.66675 15.9999V31.1666C8.66675 32.8905 9.35157 34.5438 10.5706 35.7628C11.7895 36.9818 13.4428 37.6666 15.1667 37.6666H36.8334C38.5573 37.6666 40.2106 36.9818 41.4296 35.7628C42.6486 34.5438 43.3334 32.8905 43.3334 31.1666V15.9999C43.3334 14.276 42.6486 12.6227 41.4296 11.4037C40.2106 10.1847 38.5573 9.49992 36.8334 9.49992ZM19.5001 5.16658C19.5001 3.44268 20.1849 1.78938 21.4039 0.570391C22.6229 -0.648595 24.2762 -1.33342 26.0001 -1.33342C27.724 -1.33342 29.3773 -0.648595 30.5963 0.570391C31.8153 1.78938 32.5001 3.44268 32.5001 5.16658V9.49992H19.5001V5.16658ZM39.0001 31.1666C39.0001 31.7412 38.7718 32.2923 38.3655 32.6987C37.9592 33.105 37.4081 33.3332 36.8334 33.3332H15.1667C14.5921 33.3332 14.041 33.105 13.6347 32.6987C13.2284 32.2923 13.0001 31.7412 13.0001 31.1666V15.9999C13.0001 15.4253 13.2284 14.8742 13.6347 14.4679C14.041 14.0615 14.5921 13.8333 15.1667 13.8333H36.8334C37.4081 13.8333 37.9592 14.0615 38.3655 14.4679C38.7718 14.8742 39.0001 15.4253 39.0001 15.9999V31.1666Z" fill="white"/>
</g>
</svg>
