<svg width="50" height="50" viewBox="0 0 50 50" fill="none" xmlns="http://www.w3.org/2000/svg">
<g id="woman 3">
<g clip-path="url(#clip0_964_47)">
<rect width="50" height="50" rx="25" fill="white"/>
<path id="Vector" d="M38.75 45.7985V49.2888C38.75 49.6817 38.4304 50 38.0357 50H11.9643C11.5696 50 11.25 49.6817 11.25 49.2888V45.7985C11.25 43.6231 12.3027 41.6922 13.9286 40.4832V17.5956C13.9286 12.7105 17.9062 8.75 22.8125 8.75H27.2768C32.183 8.75 36.1607 12.7105 36.1607 17.5956V40.5516C37.7357 41.7633 38.75 43.6631 38.75 45.7985Z" fill="#FFDFBA"/>
<path id="Vector_2" d="M38.75 45.9042V49.3067C38.75 49.6897 38.4304 50 38.0357 50H11.9643C11.5696 50 11.25 49.6897 11.25 49.3067V45.9042C11.25 42.3391 14.2271 39.4416 17.908 39.4416C18.725 39.4416 19.4804 39.1851 20.0929 38.75L20.2536 39.7596L24.5625 42.9983C24.8205 43.1916 25.1795 43.1916 25.4375 42.9983L29.7464 39.7596L29.9071 38.75C30.5196 39.1851 31.275 39.4416 32.092 39.4416C35.7598 39.4416 38.75 42.3279 38.75 45.9042Z" fill="#FFA4B8"/>
<path id="Vector_3" d="M30 40L28.2882 50H21.7118L20 40L24.5393 43.1625C24.8105 43.3515 25.1894 43.3515 25.4606 43.1625L30 40Z" fill="#D6F4FC"/>
<path id="Vector_4" d="M33.9006 27.1143V22.6341C33.9006 22.3286 33.7114 22.0554 33.4257 21.9515C31.8533 21.3798 30.5258 20.2783 29.6724 18.8067C29.4234 18.3773 28.831 18.3146 28.5075 18.6903C25.5292 22.1503 21.4232 24.4375 16.6459 25.0217C16.2825 25.0661 16.009 25.375 16.009 25.743V27.1142C16.009 30.8637 18.2907 34.0771 21.5346 35.4272L21.5211 35.4608V36.0814C21.5211 38.1615 19.8399 39.8372 17.7774 39.8372C16.2675 39.8372 14.8741 40.3369 13.75 41.18C13.75 40.4548 13.75 17.1015 13.75 17.7899C13.75 12.7973 17.7754 8.75 22.741 8.75H27.259C32.2246 8.75 36.25 12.7973 36.25 17.7899V41.25C35.1114 40.3642 33.6828 39.8372 32.1322 39.8372C30.072 39.8372 28.3886 38.1637 28.3886 36.0814V35.461L28.375 35.4274C31.619 34.0773 33.9006 30.8638 33.9006 27.1143Z" fill="#C79A83"/>
<path id="Vector_5" d="M33.2855 22.2235C33.5649 22.3263 33.75 22.5968 33.75 22.8993V27.3348C33.75 31.0469 31.5183 34.2283 28.3453 35.5649C22.6077 37.9887 16.25 33.6829 16.25 27.3348V25.9773C16.25 25.6129 16.5174 25.3072 16.8729 25.2632C21.543 24.6852 25.56 22.4225 28.4749 18.995C28.7913 18.6229 29.3708 18.6852 29.6143 19.1103C30.4484 20.5658 31.7462 21.657 33.2855 22.2235Z" fill="#FFEBD2"/>
<path id="Vector_6" d="M28.75 36.6907C26.3889 37.7291 23.7942 37.8097 21.25 36.6907C21.38 36.1242 21.3583 35.7572 21.3583 35.0373L21.3727 35C23.6806 36.0065 26.3149 36.0086 28.6273 35L28.6417 35.0373C28.6417 35.7575 28.62 36.1244 28.75 36.6907Z" fill="#FFD6A6"/>
<path id="Vector_7" d="M30.5925 9.41438C31.6904 9.8659 31.3267 11.5133 30.1417 11.4842C29.96 11.4797 25.3249 11.4815 25.4154 11.4815C20.4653 11.4815 16.4524 15.5375 16.4524 20.5408V24.5831C16.4524 25.247 16.002 25.265 16.002 25.7798C16.002 27.2355 15.9347 28.3186 16.4012 29.8292C16.4342 29.9359 16.4524 30.0468 16.4524 30.1586V39.1954C16.4524 39.662 16.1595 40.0827 15.7197 40.2248C15.0036 40.4561 14.3398 40.8054 13.75 41.25V17.8094C13.75 12.806 17.7629 8.75 22.713 8.75H27.217C28.4112 8.75 29.5508 8.986 30.5925 9.41438Z" fill="#E0B7A3"/>
<path id="Vector_8" d="M23.0715 32.4631C24.55 33.3419 23.3822 35.5094 21.7659 34.8905C18.4849 33.6342 16.25 30.5931 16.25 27.11V25.8332C16.25 25.4909 16.517 25.2028 16.8728 25.1616C17.2086 25.1227 17.5556 25.0737 17.9119 25.0133C18.424 24.9264 18.9057 25.2758 18.9505 25.7707C19.2309 28.8667 20.8727 31.1563 23.0715 32.4631Z" fill="#FFF3E4"/>
<path id="Vector_9" d="M20 41.9531C16.0828 42.0575 13.6727 45.1172 13.6727 48.4175V50H11.9183C11.5492 50 11.25 49.6896 11.25 49.3067V45.9042C11.25 42.3391 14.0356 39.4416 17.4796 39.4416C18.244 39.4416 18.9507 39.1851 19.5238 38.75C19.7138 40.0257 19.6139 39.3537 20 41.9531Z" fill="#FFB1BF"/>
<path id="Vector_10" d="M28.75 41.9531C33.2268 42.0575 35.9812 45.1172 35.9812 48.4175V50H37.9862C38.408 50 38.75 49.6896 38.75 49.3067V45.9042C38.75 42.3391 35.5665 39.4416 31.6305 39.4416C30.7569 39.4416 29.9492 39.1851 29.2942 38.75C29.077 40.0257 29.1912 39.3537 28.75 41.9531Z" fill="#FF99AF"/>
<path id="Vector_11" d="M23.75 50H21.7866L20 40L22.2294 41.4878L23.75 50Z" fill="#BDEFFC"/>
<path id="Vector_12" d="M40 46.2134V50.5207C40 50.9234 39.6683 51.2499 39.2593 51.2499C38.8502 51.2499 38.5185 50.9234 38.5185 50.5207V46.2134C38.5185 42.8598 35.7616 40.1457 32.3544 40.1458C31.7613 40.1458 31.1889 40.0355 30.6598 39.8298L28.969 50.6318C28.9068 51.03 28.5283 51.3027 28.1242 51.2414C27.7199 51.18 27.4427 50.8077 27.505 50.4097L29.292 38.9923C28.9664 38.7029 28.6783 38.3656 28.4416 37.9831C28.2288 37.6392 28.3394 37.1906 28.6889 36.981C29.0381 36.7714 29.494 36.8805 29.7068 37.2244C30.2678 38.1309 31.2588 38.6874 32.3544 38.6874C36.5799 38.6874 40 42.0534 40 46.2134ZM27.7649 41.3955C27.5143 41.0771 27.0492 41.0187 26.7256 41.2653L25 42.5804L20.7645 39.3524L20.7079 38.9912C21.5597 38.236 22.1117 37.192 22.2065 36.0091C28.5302 37.8417 34.8563 33.1702 34.907 26.7283C34.9074 26.7121 34.9073 21.6438 34.9073 21.6276C34.9073 21.3541 34.7477 21.0935 34.4859 20.9704C34.3243 20.8941 31.3245 20.2596 30.0402 17.0747C29.8289 16.5505 29.1131 16.4495 28.7628 16.9015C26.0521 20.399 22.2029 22.7353 17.8884 23.5771C17.4871 23.6554 17.2263 24.0391 17.3058 24.4341C17.3758 24.7813 17.6853 25.0216 18.0316 25.0216C18.2177 25.0216 24.4534 24.1142 29.1967 18.6896C30.1831 20.3502 31.6934 21.5391 33.4258 22.1571V26.652C33.4258 31.2255 29.646 34.9463 24.9999 34.9463C20.6514 34.9463 16.574 31.6192 16.574 26.3672C16.574 25.9645 16.2424 25.6381 15.8333 25.6381C15.4242 25.6381 15.0926 25.9645 15.0926 26.3672C15.0926 26.405 15.0918 26.7698 15.0938 26.8061C15.1541 30.6182 17.4478 33.9067 20.7407 35.4565V35.6486C20.7407 36.4609 20.4188 37.2242 19.8345 37.7979C18.7945 38.8186 17.4525 38.6875 17.6454 38.6875C16.451 38.6875 15.2992 38.9572 14.2592 39.464V17.2981C14.2592 12.6996 18.0599 8.95833 22.7314 8.95833H27.361C32.0325 8.95833 35.8332 12.6996 35.8332 17.2981V37.0312C35.8332 37.4338 36.1648 37.7603 36.5739 37.7603C36.983 37.7603 37.3146 37.4338 37.3146 37.0312V17.2981C37.3146 11.8954 32.8494 7.5 27.361 7.5H22.7314C17.243 7.5 12.7778 11.8954 12.7778 17.2981V40.4099C11.0052 41.8559 10 43.9548 10 46.2134V50.5207C10 50.9234 10.3317 51.2499 10.7407 51.2499C11.1498 51.2499 11.4815 50.9234 11.4815 50.5207V46.2134C11.4815 44.5927 12.1227 43.0689 13.2869 41.9228C15.3447 39.8972 17.9604 40.1457 17.6457 40.1457C18.2355 40.1457 18.8079 40.0359 19.3399 39.8278L21.0309 50.6316C21.0872 50.992 21.4028 51.2499 21.7621 51.2499C22.2179 51.2499 22.564 50.8505 22.495 50.4096L21.0922 41.4464L24.5465 44.079C24.814 44.2828 25.1869 44.2821 25.4534 44.079L27.6325 42.4183C27.956 42.1719 28.0153 41.7138 27.7649 41.3955Z" fill="black"/>
</g>
<rect x="0.5" y="0.5" width="49" height="49" rx="24.5" stroke="black"/>
</g>
<defs>
<clipPath id="clip0_964_47">
<rect width="50" height="50" rx="25" fill="white"/>
</clipPath>
</defs>
</svg>
